<svg width="16" height="16" viewBox="0 0 16 16" fill="none" xmlns="http://www.w3.org/2000/svg">
<path d="M11.0996 4.59961C11.9281 4.59961 12.5996 3.92804 12.5996 3.09961C12.5996 2.27118 11.9281 1.59961 11.0996 1.59961C10.2712 1.59961 9.59961 2.27118 9.59961 3.09961C9.59961 3.92804 10.2712 4.59961 11.0996 4.59961Z" stroke="#E2E2E8" stroke-width="1.00769" stroke-linecap="round" stroke-linejoin="round"/>
<path d="M9.21222 6.01449L9.53141 5.62464L8.75171 4.98628L8.43252 5.37613L9.21222 6.01449ZM6.67578 8.31717L6.28593 7.99799C6.12191 8.19832 6.13643 8.49036 6.31951 8.67344L6.67578 8.31717ZM9.45383 11.0952L9.91251 11.3037C9.99943 11.1125 9.95862 10.8875 9.81011 10.739L9.45383 11.0952ZM7.60611 13.9425L7.39762 14.4012L8.31498 14.8182L8.52348 14.3595L7.60611 13.9425ZM8.43252 5.37613L6.28593 7.99799L7.06563 8.63635L9.21222 6.01449L8.43252 5.37613ZM6.31951 8.67344L9.09756 11.4515L9.81011 10.739L7.03206 7.9609L6.31951 8.67344ZM8.99515 10.8867L7.60611 13.9425L8.52348 14.3595L9.91251 11.3037L8.99515 10.8867Z" fill="#E2E2E8"/>
<path d="M4.14843 5.63933L3.78799 5.99139L4.49211 6.71226L4.85255 6.3602L4.14843 5.63933ZM6.77578 3.77734L7.09742 3.38953C6.89894 3.2249 6.60819 3.23672 6.42371 3.41691L6.77578 3.77734ZM8.89853 5.53791L9.27771 5.20613C9.26005 5.18595 9.24081 5.16721 9.22018 5.1501L8.89853 5.53791ZM10.8432 7.7604L10.4641 8.09219C10.5597 8.20153 10.6979 8.26424 10.8432 8.26424V7.7604ZM11.9999 8.26424H12.5037V7.25655H11.9999V8.26424ZM4.85255 6.3602L7.12784 4.13778L6.42371 3.41691L4.14843 5.63933L4.85255 6.3602ZM6.45413 4.16516L8.57688 5.92573L9.22018 5.1501L7.09742 3.38953L6.45413 4.16516ZM8.51935 5.8697L10.4641 8.09219L11.2224 7.42861L9.27771 5.20613L8.51935 5.8697ZM10.8432 8.26424H11.9999V7.25655H10.8432V8.26424Z" fill="#E2E2E8"/>
<path d="M6.67809 10.9583L7.09731 10.6788L6.53832 9.84035L6.1191 10.1198L6.67809 10.9583ZM5.56519 11.0947V11.5985C5.66467 11.5985 5.76192 11.5691 5.84469 11.5139L5.56519 11.0947ZM3.34277 10.5909H2.83893V11.5985H3.34277V10.5909ZM6.1191 10.1198L5.28569 10.6755L5.84469 11.5139L6.67809 10.9583L6.1191 10.1198ZM5.56519 10.5909H3.34277V11.5985H5.56519V10.5909Z" fill="#E2E2E8"/>
</svg>
