<svg width="32" height="28" viewBox="0 0 16 14" fill="#1F2025" xmlns="http://www.w3.org/2000/svg">
<path fill-rule="evenodd" clip-rule="evenodd" d="M5.69753 1.94694L12.0522 4.72709C12.9161 5.10503 13.6158 5.41113 14.0951 5.70816C14.5696 6.00218 15.0051 6.39377 15.0051 7.00002C15.0051 7.60628 14.5696 7.99787 14.0951 8.29189C13.6158 8.58892 12.9161 8.89502 12.0521 9.27296L5.69751 12.0531C4.58725 12.5389 3.70603 12.9244 3.04244 13.1165C2.70572 13.214 2.38148 13.2754 2.08611 13.2571C1.77331 13.2378 1.47755 13.1269 1.25156 12.8754C1.02557 12.6239 0.946841 12.318 0.960932 12.0049C0.974238 11.7093 1.06984 11.3934 1.20262 11.069C1.4643 10.4297 1.94153 9.59452 2.54281 8.54231L2.99885 7.74423C3.14206 7.49362 3.2313 7.33634 3.28821 7.20946C3.34065 7.09253 3.34824 7.03774 3.34824 7.00002C3.34824 6.96231 3.34065 6.90752 3.28821 6.79059C3.2313 6.66371 3.14206 6.50643 2.99885 6.25582L2.5428 5.45774C1.94153 4.40553 1.4643 3.57039 1.20262 2.93104C1.06984 2.60662 0.974238 2.29077 0.960932 1.99513C0.946841 1.68204 1.02557 1.37616 1.25156 1.12466C1.47755 0.873163 1.77331 0.762298 2.08611 0.742955C2.38148 0.724691 2.70572 0.786099 3.04244 0.883562C3.70604 1.07564 4.58726 1.46118 5.69753 1.94694ZM2.14783 1.74105C2.03902 1.74778 2.0108 1.77588 1.99538 1.79304C1.97996 1.8102 1.95502 1.84125 1.95992 1.95017C1.96561 2.07653 2.01166 2.26775 2.1281 2.55225C2.36181 3.12325 2.80516 3.90129 3.43222 4.99865L3.87787 5.77853C4.00709 6.00463 4.12132 6.20452 4.20064 6.38136C4.28661 6.57306 4.34824 6.77217 4.34824 7.00002C4.34824 7.22788 4.28661 7.42699 4.20064 7.61869C4.12132 7.79553 4.00708 7.99542 3.87786 8.22153L3.43222 9.0014C2.80516 10.0988 2.36181 10.8768 2.1281 11.4478C2.01166 11.7323 1.96561 11.9235 1.95992 12.0499C1.95502 12.1588 1.97996 12.1898 1.99538 12.207C2.0108 12.2242 2.03902 12.2523 2.14783 12.259C2.27408 12.2668 2.46911 12.2414 2.7644 12.1559C3.35705 11.9844 4.1779 11.6264 5.33581 11.1198L11.6114 8.37426C12.5247 7.97473 13.1574 7.69652 13.5684 7.44184C13.9917 7.17959 14.0051 7.04778 14.0051 7.00002C14.0051 6.95227 13.9917 6.82046 13.5684 6.55821C13.1574 6.30353 12.5247 6.02532 11.6114 5.62579L5.33581 2.88021C4.1779 2.37362 3.35705 2.01567 2.7644 1.84413C2.46911 1.75866 2.27408 1.73324 2.14783 1.74105Z" />
</svg>
