<svg width="15" height="15" viewBox="0 0 15 15" fill="none" xmlns="http://www.w3.org/2000/svg">
<path d="M7.5 1.5V0.5V1.5ZM7.5 14.49V13.492V14.49ZM13.5 7.495H14.5H13.5ZM1.5 7.495H0.5H1.5ZM2.5 2.499L1.5 1.499L2.5 2.499ZM13.5 1.499L12.5 2.499L13.5 1.499ZM2.5 12.492L1.5 13.492L2.5 12.492ZM13.5 13.492L12.5 12.492L13.5 13.492ZM10.5 7.495C10.4999 7.88883 10.4222 8.27879 10.2713 8.64259C10.1205 9.0064 9.89948 9.33693 9.62091 9.61532C9.34233 9.89371 9.01165 10.1145 8.64774 10.2651C8.28384 10.4157 7.89383 10.4931 7.5 10.493C6.90685 10.4928 6.32709 10.3167 5.83401 9.98702C5.34094 9.65732 4.95671 9.18882 4.7299 8.64074C4.5031 8.09267 4.44391 7.48965 4.55982 6.90794C4.67573 6.32623 4.96154 5.79196 5.38109 5.37268C5.80065 4.9534 6.33512 4.66795 6.9169 4.55243C7.49869 4.43691 8.10167 4.4965 8.64959 4.72367C9.19751 4.95084 9.66576 5.33538 9.99513 5.82868C10.3245 6.32197 10.5002 6.90185 10.5 7.495V7.495Z" stroke-linecap="square"/>
</svg>
