<?xml version="1.0" standalone="no"?>
<!DOCTYPE svg PUBLIC "-//W3C//DTD SVG 20010904//EN"
 "http://www.w3.org/TR/2001/REC-SVG-20010904/DTD/svg10.dtd">
<svg version="1.0" xmlns="http://www.w3.org/2000/svg"
 width="768.000000pt" height="768.000000pt" viewBox="0 0 768.000000 768.000000"
 preserveAspectRatio="xMidYMid meet">
<metadata>
Created by potrace 1.14, written by Peter Selinger 2001-2017
</metadata>
<g transform="translate(0.000000,768.000000) scale(0.100000,-0.100000)"
fill="#000000" stroke="none">
<path d="M650 7522 c-7 -3 -10 -1245 -10 -3682 0 -3576 1 -3678 19 -3683 10
-2 25 0 34 4 9 5 18 6 20 2 3 -5 31 -7 64 -5 32 1 63 3 68 3 6 0 30 -1 55 -1
25 0 52 0 60 0 8 0 29 -1 45 -3 17 -1 40 1 53 5 12 4 22 4 22 0 0 -9 253 -8
268 2 7 4 12 3 12 -1 0 -9 57 -9 66 0 3 3 20 1 38 -3 19 -4 40 -4 47 1 7 4 18
5 23 2 14 -9 98 -9 118 -1 9 5 19 5 21 1 3 -5 31 -7 64 -5 32 1 63 3 68 3 6 0
30 -1 55 -1 25 0 52 0 60 0 8 0 29 -1 45 -3 17 -1 40 1 53 5 12 4 22 4 22 0 0
-9 253 -8 268 2 7 4 12 3 12 -1 0 -10 35 -9 68 1 13 4 19 12 15 19 -4 6 -6 59
-4 117 3 132 3 117 -1 173 -2 26 1 47 5 47 4 0 4 8 0 18 -5 9 -7 49 -6 87 4
115 4 128 1 173 -2 23 1 42 5 42 4 0 4 8 0 18 -5 9 -7 49 -6 87 4 115 4 128 1
173 -2 23 1 42 5 42 4 0 4 8 0 18 -5 9 -7 49 -6 87 4 115 4 128 1 173 -2 23 1
42 5 42 4 0 4 8 0 18 -5 9 -7 49 -6 87 4 115 4 128 1 173 -2 23 1 42 5 42 4 0
4 8 0 18 -5 9 -7 49 -6 87 4 115 4 128 1 173 -2 23 1 42 5 42 4 0 4 8 0 18 -5
9 -7 49 -6 87 4 115 4 128 1 173 -2 23 1 42 5 42 5 0 5 5 1 11 -9 15 -11 169
-2 169 4 0 3 12 0 28 -9 31 -7 130 2 139 3 3 515 7 1138 8 623 2 1156 5 1183
8 28 4 77 9 110 12 91 10 183 22 221 29 12 2 38 7 57 10 20 3 80 15 134 27 54
12 105 23 113 24 8 2 16 4 18 5 1 2 5 3 10 4 4 2 25 8 47 14 22 6 43 12 47 12
4 1 49 16 100 35 375 136 640 301 873 545 92 95 225 267 225 289 0 5 4 11 8
13 19 8 137 237 179 347 50 133 89 265 108 369 2 12 6 25 8 30 3 4 8 30 11 57
4 28 9 59 12 70 19 85 28 238 28 470 1 228 -7 366 -28 480 -3 17 -8 48 -11 70
-10 66 -64 274 -97 370 -54 159 -129 312 -223 455 -226 342 -541 590 -970 762
-54 22 -244 85 -279 93 -11 2 -57 13 -101 24 -44 11 -94 22 -110 25 -17 2 -32
5 -35 6 -6 3 -7 3 -75 15 -27 4 -59 9 -70 10 -11 1 -36 5 -55 8 -66 12 -210
25 -370 33 -167 8 -176 8 -187 1 -7 -4 -14 -4 -17 1 -5 8 -64 8 -72 -1 -3 -3
-20 -1 -38 3 -19 4 -40 4 -47 -1 -7 -4 -18 -5 -23 -2 -14 9 -98 9 -118 1 -9
-5 -19 -5 -21 -1 -3 5 -31 7 -64 5 -32 -1 -62 -3 -68 -3 -5 0 -30 1 -55 1 -25
0 -52 0 -60 0 -8 0 -28 1 -45 3 -16 1 -40 -1 -52 -5 -13 -4 -23 -4 -23 0 0 9
-253 8 -268 -2 -7 -4 -12 -3 -12 1 0 9 -57 9 -66 0 -3 -3 -20 -1 -38 3 -19 4
-40 4 -47 -1 -7 -4 -18 -5 -23 -2 -14 9 -98 9 -118 1 -9 -5 -19 -5 -21 -1 -3
5 -31 7 -64 5 -32 -1 -62 -3 -68 -3 -5 0 -30 1 -55 1 -25 0 -52 0 -60 0 -8 0
-28 1 -45 3 -16 1 -40 -1 -52 -5 -13 -4 -23 -4 -23 0 0 9 -253 8 -268 -2 -7
-4 -12 -3 -12 1 0 9 -57 9 -66 0 -3 -3 -20 -1 -38 3 -19 4 -40 4 -47 -1 -7 -4
-18 -5 -23 -2 -14 9 -98 9 -118 1 -9 -5 -19 -5 -21 -1 -3 5 -31 7 -64 5 -32
-1 -62 -3 -68 -3 -5 0 -30 1 -55 1 -25 0 -52 0 -60 0 -8 0 -28 1 -45 3 -16 1
-40 -1 -52 -5 -13 -4 -23 -4 -23 0 0 9 -253 8 -268 -2 -7 -4 -12 -3 -12 1 0 9
-57 9 -66 0 -3 -3 -20 -1 -38 3 -19 4 -40 4 -47 -1 -7 -4 -18 -5 -23 -2 -14 9
-98 9 -118 1 -9 -5 -19 -5 -21 -1 -3 5 -31 7 -64 5 -32 -1 -62 -3 -68 -3 -5 0
-30 1 -55 1 -25 0 -52 0 -60 0 -8 0 -28 1 -45 3 -16 1 -40 -1 -52 -5 -13 -4
-23 -4 -23 0 0 7 -170 10 -190 4z m3795 -1546 c22 -3 51 -8 65 -11 14 -3 42
-8 64 -10 60 -8 214 -62 286 -102 91 -49 171 -116 221 -183 66 -90 121 -227
136 -340 9 -71 10 -260 2 -325 -7 -50 -36 -161 -48 -180 -3 -5 -6 -12 -6 -15
-3 -18 -60 -115 -96 -160 -145 -184 -362 -282 -699 -316 -82 -9 -1961 -10
-1966 -2 -9 14 -10 79 -2 84 5 3 5 10 2 16 -6 9 -8 96 -3 116 1 4 0 12 -1 17
-6 28 -4 115 2 115 4 0 5 7 1 16 -9 23 -9 194 0 194 5 0 5 5 1 11 -9 14 -8
124 1 138 3 6 3 11 -2 11 -9 0 -8 114 2 129 3 6 3 11 -2 11 -10 0 -10 131 0
147 4 6 4 14 -1 17 -9 5 -7 70 3 86 3 5 2 11 -3 14 -4 2 -6 24 -4 48 4 55 4
56 0 101 -3 20 -1 37 4 37 4 0 5 7 2 15 -10 24 -10 195 -1 195 5 0 5 5 1 11
-8 14 -9 103 -1 116 6 10 1969 10 2042 -1z"/>
</g>
</svg>
