<?xml version="1.0" standalone="no"?>
<svg version="1.0" xmlns="http://www.w3.org/2000/svg"
     width="24.000000pt" height="24.000000pt" viewBox="0 0 24.000000 24.000000"
     preserveAspectRatio="xMidYMid meet">

  <g transform="translate(0.000000,24.000000) scale(0.100000,-0.100000)"
     fill="#000000" stroke="none">
    <path d="M27 213 c-11 -11 -8 -153 3 -153 6 0 10 30 10 70 l0 70 70 0 c40 0
70 4 70 10 0 11 -142 14 -153 3z"/>
    <path d="M64 167 c-3 -8 -4 -43 -2 -78 l3 -64 75 0 75 0 0 75 0 75 -73 3 c-55
2 -74 -1 -78 -11z m136 -67 l0 -60 -60 0 -60 0 0 60 0 60 60 0 60 0 0 -60z"/>
  </g>
</svg>
